<?xml version="1.0" encoding="UTF-8"?>
<svg xmlns="http://www.w3.org/2000/svg" xmlns:xlink="http://www.w3.org/1999/xlink" width="50px" height="50px" viewBox="0 0 50 50" version="1.1">
<g id="surface1">
<path style=" stroke:none;fill-rule:nonzero;fill:rgb(0%,0%,0%);fill-opacity:1;" d="M 48.929688 8.9375 L 9.285156 8.9375 C 9.207031 8.9375 9.140625 8.96875 9.066406 8.984375 L 7.453125 3.628906 C 7.4375 3.570312 7.398438 3.527344 7.371094 3.476562 C 7.328125 2.925781 6.878906 2.488281 6.316406 2.488281 C 6.316406 2.488281 6.3125 2.488281 6.3125 2.488281 L 1.066406 2.511719 C 0.476562 2.515625 -0.00390625 2.996094 0 3.585938 C 0.00390625 4.179688 0.480469 4.65625 1.070312 4.65625 C 1.074219 4.65625 1.074219 4.65625 1.074219 4.65625 L 5.519531 4.636719 L 15.777344 38.675781 C 14.757812 39.605469 14.105469 40.933594 14.105469 42.421875 C 14.105469 45.234375 16.382812 47.511719 19.195312 47.511719 C 22.007812 47.511719 24.285156 45.230469 24.285156 42.421875 C 24.285156 41.6875 24.125 40.996094 23.847656 40.367188 L 38.652344 40.367188 C 38.375 40.996094 38.214844 41.6875 38.214844 42.421875 C 38.214844 45.234375 40.492188 47.511719 43.304688 47.511719 C 46.113281 47.511719 48.390625 45.230469 48.390625 42.421875 C 48.390625 39.613281 46.113281 37.332031 43.304688 37.332031 C 42.234375 37.332031 41.246094 37.664062 40.429688 38.226562 L 22.070312 38.226562 C 21.25 37.664062 20.261719 37.332031 19.195312 37.332031 C 18.664062 37.332031 18.164062 37.4375 17.683594 37.585938 L 16.152344 32.511719 L 43.148438 32.488281 C 43.621094 32.488281 44.007812 32.175781 44.148438 31.75 C 44.1875 31.683594 44.226562 31.617188 44.246094 31.542969 L 49.960938 10.46875 C 49.996094 10.335938 50.003906 10.203125 49.988281 10.074219 C 49.988281 10.050781 50 10.03125 50 10.011719 C 50 9.417969 49.519531 8.9375 48.929688 8.9375 Z M 43.304688 39.476562 C 44.929688 39.476562 46.25 40.796875 46.25 42.421875 C 46.25 44.046875 44.929688 45.367188 43.304688 45.367188 C 41.679688 45.367188 40.359375 44.046875 40.359375 42.421875 C 40.359375 40.796875 41.679688 39.476562 43.304688 39.476562 Z M 19.195312 39.476562 C 20.824219 39.476562 22.144531 40.796875 22.144531 42.421875 C 22.144531 44.046875 20.824219 45.367188 19.195312 45.367188 C 17.570312 45.367188 16.25 44.046875 16.25 42.421875 C 16.25 40.796875 17.570312 39.476562 19.195312 39.476562 Z M 42.351562 30.347656 L 15.507812 30.367188 L 9.699219 11.082031 L 47.578125 11.082031 Z M 42.351562 30.347656 "/>
</g>
</svg>
